<svg width="9" height="9" viewBox="0 0 9 9" fill="none" xmlns="http://www.w3.org/2000/svg">
<path d="M6.85819 5.85886C6.75168 5.96752 6.70274 6.12466 6.72701 6.27878L7.0926 8.40869C7.12344 8.58921 7.05106 8.7719 6.90754 8.87623C6.7669 8.98446 6.57978 8.99744 6.42639 8.91086L4.60503 7.91084C4.5417 7.87534 4.47137 7.8563 4.39941 7.85413H4.28796C4.24931 7.86019 4.21147 7.87318 4.17693 7.89309L2.35515 8.89787C2.26509 8.94549 2.1631 8.96238 2.06317 8.94549C1.81972 8.89701 1.65728 8.65285 1.69717 8.39527L2.06317 6.26536C2.08744 6.10994 2.0385 5.95193 1.93199 5.84154L0.447013 4.32636C0.32282 4.19952 0.27964 4.00904 0.336391 3.83718C0.391496 3.66574 0.532139 3.54063 0.70198 3.5125L2.74583 3.20037C2.90127 3.18348 3.0378 3.08392 3.10771 2.93673L4.00832 0.992969C4.02971 0.949678 4.05726 0.909851 4.09057 0.876084L4.12758 0.84578C4.14691 0.823269 4.16912 0.804654 4.19379 0.789502L4.23861 0.772186L4.30852 0.741882H4.48166C4.63628 0.758766 4.7724 0.85617 4.84354 1.00163L5.75608 2.93673C5.82188 3.07829 5.94977 3.17656 6.0974 3.20037L8.14125 3.5125C8.31397 3.53847 8.45831 3.66401 8.51548 3.83718C8.56935 4.01077 8.52288 4.20125 8.39622 4.32636L6.85819 5.85886Z" fill="#FCB800"/>
</svg>
